<svg aria-hidden="true" style="position: absolute; width: 0; height: 0; overflow: hidden;" version="1.1" xmlns="http://www.w3.org/2000/svg" xmlns:xlink="http://www.w3.org/1999/xlink">
    <defs>
        <symbol id="icon-arrow-bottom" viewBox="0 0 32 32">
            <path fill="none" stroke-linejoin="miter" stroke-linecap="butt" stroke-miterlimit="4" stroke-width="0.8205" d="M31.5 23.75v-15.5c0-4.28-3.47-7.75-7.75-7.75h-15.5c-4.28 0-7.75 3.47-7.75 7.75v15.5c0 4.28 3.47 7.75 7.75 7.75h15.5c4.28 0 7.75-3.47 7.75-7.75z"></path>
            <path stroke="none" d="M16.332 21.429c-0.179 0-0.345-0.077-0.467-0.205l-3.744-4.025c-0.243-0.256-0.224-0.659 0.032-0.902s0.659-0.224 0.902 0.032l2.637 2.835v-6.988c0-0.352 0.288-0.64 0.64-0.64s0.64 0.288 0.64 0.64v6.988l2.643-2.835c0.237-0.256 0.646-0.275 0.902-0.032 0.256 0.237 0.275 0.646 0.032 0.902l-3.75 4.025c-0.121 0.128-0.288 0.205-0.467 0.205z"></path>
        </symbol>
        <symbol id="icon-arrow-right" viewBox="0 0 32 32">
            <path fill="none" stroke-linejoin="miter" stroke-linecap="butt" stroke-miterlimit="4" stroke-width="0.8205" d="M23.75 0.5h-15.5c-4.28 0-7.75 3.47-7.75 7.75v15.5c0 4.28 3.47 7.75 7.75 7.75h15.5c4.28 0 7.75-3.47 7.75-7.75v-15.5c0-4.28-3.47-7.75-7.75-7.75z"></path>
            <path stroke="none" d="M21.429 15.668c0 0.179-0.077 0.345-0.205 0.467l-4.025 3.744c-0.256 0.243-0.659 0.224-0.902-0.032s-0.224-0.659 0.032-0.902l2.835-2.637h-6.988c-0.352 0-0.64-0.288-0.64-0.64s0.288-0.64 0.64-0.64h6.988l-2.835-2.643c-0.256-0.237-0.275-0.646-0.032-0.902 0.237-0.256 0.646-0.275 0.902-0.032l4.025 3.75c0.128 0.121 0.205 0.288 0.205 0.467z"></path>
        </symbol>
        <symbol id="icon-arrow-top" viewBox="0 0 32 32">
            <path fill="none" stroke-linejoin="miter" stroke-linecap="butt" stroke-miterlimit="4" stroke-width="0.8205" d="M0.5 8.25v15.5c0 4.28 3.47 7.75 7.75 7.75h15.5c4.28 0 7.75-3.47 7.75-7.75v-15.5c0-4.28-3.47-7.75-7.75-7.75h-15.5c-4.28 0-7.75 3.47-7.75 7.75z"></path>
            <path stroke="none" d="M15.668 10.571c0.179 0 0.345 0.077 0.467 0.205l3.744 4.025c0.243 0.256 0.224 0.659-0.032 0.902s-0.659 0.224-0.902-0.032l-2.637-2.835v6.988c0 0.352-0.288 0.64-0.64 0.64s-0.64-0.288-0.64-0.64v-6.988l-2.643 2.835c-0.237 0.256-0.646 0.275-0.902 0.032-0.256-0.237-0.275-0.646-0.032-0.902l3.75-4.025c0.121-0.128 0.288-0.205 0.467-0.205z"></path>
        </symbol>
        <symbol id="icon-arrow-left" viewBox="0 0 32 32">
            <path fill="none" stroke-linejoin="miter" stroke-linecap="butt" stroke-miterlimit="4" stroke-width="0.8205" d="M8.25 0.5h15.5c4.28 0 7.75 3.47 7.75 7.75v15.5c0 4.28-3.47 7.75-7.75 7.75h-15.5c-4.28 0-7.75-3.47-7.75-7.75v-15.5c0-4.28 3.47-7.75 7.75-7.75z"></path>
            <path stroke="none" d="M10.571 15.668c0 0.179 0.077 0.345 0.205 0.467l4.025 3.744c0.256 0.243 0.659 0.224 0.902-0.032s0.224-0.659-0.032-0.902l-2.835-2.637h6.988c0.352 0 0.64-0.288 0.64-0.64s-0.288-0.64-0.64-0.64h-6.988l2.835-2.643c0.256-0.237 0.275-0.646 0.032-0.902-0.237-0.256-0.646-0.275-0.902-0.032l-4.025 3.75c-0.128 0.121-0.205 0.288-0.205 0.467z"></path>
        </symbol>
        <symbol id="icon-arrow-bg" viewBox="0 0 32 32">
            <path stroke="none" d="M23.75 0.5h-15.5c-4.28 0-7.75 3.47-7.75 7.75v15.5c0 4.28 3.47 7.75 7.75 7.75h15.5c4.28 0 7.75-3.47 7.75-7.75v-15.5c0-4.28-3.47-7.75-7.75-7.75z"></path>
        </symbol>
        <symbol id="icon-menu-mobile-close" viewBox="0 0 32 32">
            <path fill="#c5f600" style="fill: var(--color1, #c5f600)" d="M26.22 0h-20.732c-3.031 0-5.488 2.457-5.488 5.488v20.732c0 3.031 2.457 5.488 5.488 5.488h20.732c3.031 0 5.488-2.457 5.488-5.488v-20.732c0-3.031-2.457-5.488-5.488-5.488z"></path>
            <path fill="#17181c" style="fill: var(--color2, #17181c)" d="M16.437 15.61l3.684-3.683c0.229-0.229 0.229-0.599 0-0.828s-0.599-0.229-0.828 0l-3.683 3.684-3.683-3.684c-0.229-0.229-0.599-0.229-0.828 0s-0.229 0.599 0 0.828l3.684 3.683-3.684 3.683c-0.229 0.229-0.229 0.599 0 0.828s0.599 0.229 0.828 0l3.683-3.684 3.683 3.684c0.229 0.229 0.599 0.229 0.828 0s0.229-0.599 0-0.828l-3.684-3.683z"></path>
        </symbol>
        <symbol id="icon-menu-mobile" viewBox="0 0 32 32">
            <path fill="#c5f600" style="fill: var(--color1, #c5f600)" d="M26.22 0h-20.732c-3.031 0-5.488 2.457-5.488 5.488v20.732c0 3.031 2.457 5.488 5.488 5.488h20.732c3.031 0 5.488-2.457 5.488-5.488v-20.732c0-3.031-2.457-5.488-5.488-5.488z"></path>
            <path fill="none" stroke="#17181c" style="stroke: var(--color2, #17181c)" stroke-linejoin="miter" stroke-linecap="round" stroke-miterlimit="4" stroke-width="1.561" d="M9.073 10.927h14.049M9.073 15.61h6.244M9.073 20.293h10.146"></path>
        </symbol>
        <symbol id="icon-twitter" viewBox="0 0 36 32">
            <path d="M33.387 31.149h-11.176l-22.211-31.077h11.176l22.211 31.077z"></path>
            <path d="M0.722 31.078l3.965 0.144 27.98-31.077-3.965-0.144-27.98 31.077z"></path>
            <path fill="#17181C" d="M28.638 28.941h-4.836l-19.053-26.659h4.836l19.053 26.659z"></path>
        </symbol>
        <symbol id="icon-linkedin" viewBox="0 0 32 32">
            <path d="M7.115 3.575c0 0.949-0.307 1.77-0.92 2.464s-1.487 1.041-2.62 1.041c-1.087 0-1.955-0.335-2.603-1.007s-0.972-1.481-0.972-2.43c0-0.949 0.318-1.793 0.954-2.534s1.51-1.111 2.62-1.111c1.087 0 1.944 0.353 2.568 1.059s0.949 1.544 0.972 2.516zM0 32v-23.115h7.115v23.115h-7.115zM10.655 16.798c0-1.365-0.017-2.632-0.052-3.8s-0.075-2.239-0.121-3.21h6.386l0.312 3.054h0.139c0.463-0.717 1.249-1.492 2.36-2.325s2.591-1.249 4.442-1.249c1.111 0 2.152 0.191 3.124 0.573s1.805 0.966 2.499 1.753c0.694 0.787 1.244 1.776 1.649 2.967s0.607 2.597 0.607 4.217v13.223h-7.115v-12.182c0-1.411-0.283-2.597-0.85-3.557s-1.463-1.44-2.69-1.44c-0.949 0-1.683 0.307-2.204 0.92s-0.897 1.232-1.128 1.857c-0.093 0.231-0.156 0.497-0.191 0.798s-0.052 0.602-0.052 0.902v12.703h-7.115v-15.202z"></path>
        </symbol>
        <symbol id="icon-facebook" viewBox="0 0 32 32">
            <path d="M18.667 10.667h5.333l-0.667 5.333h-4.667v16h-6.917v-16h-3.75v-5.333h3.75v-3.583c0-2.333 0.583-4.097 1.75-5.292s3.111-1.792 5.833-1.792h4.667v5.333h-2.833c-1.056 0-1.736 0.167-2.042 0.5s-0.458 0.889-0.458 1.667v3.167z"></path>
        </symbol>
        <symbol id="icon-instagram" viewBox="0 0 32 32">
            <path d="M16 2.867c2.123 0 3.522 0.006 4.197 0.019s1.436 0.044 2.286 0.094c0.749 0.025 1.361 0.094 1.836 0.206s0.849 0.256 1.124 0.431c0.35 0.1 0.674 0.25 0.974 0.45s0.587 0.425 0.862 0.674c0.275 0.275 0.5 0.55 0.675 0.824s0.325 0.612 0.45 1.012c0.075 0.275 0.175 0.643 0.3 1.105s0.212 1.080 0.262 1.855c0.025 0.824 0.044 1.58 0.056 2.267s0.019 2.080 0.019 4.178c0 2.123-0.006 3.529-0.019 4.215s-0.031 1.443-0.056 2.267c0 0.774-0.056 1.393-0.169 1.855s-0.244 0.831-0.394 1.105c-0.125 0.35-0.287 0.674-0.487 0.974s-0.412 0.587-0.637 0.862c-0.275 0.275-0.55 0.5-0.824 0.674s-0.612 0.325-1.012 0.45c-0.275 0.075-0.649 0.175-1.124 0.3s-1.087 0.212-1.836 0.262c-0.849 0.050-1.611 0.075-2.286 0.075s-2.073 0-4.197 0c-2.123 0-3.522 0-4.197 0s-1.436-0.025-2.286-0.075c-0.749 0-1.361-0.056-1.836-0.169s-0.849-0.244-1.124-0.393c-0.35-0.125-0.674-0.281-0.974-0.468s-0.587-0.406-0.862-0.656c-0.275-0.275-0.5-0.55-0.674-0.824s-0.325-0.612-0.45-1.012c-0.1-0.275-0.219-0.643-0.356-1.105s-0.231-1.080-0.281-1.855c-0.025-0.824-0.044-1.58-0.056-2.267s-0.019-2.092-0.019-4.215c0-2.098 0.006-3.491 0.019-4.178s0.031-1.443 0.056-2.267c0.050-0.774 0.131-1.393 0.244-1.855s0.244-0.831 0.393-1.105c0.125-0.375 0.287-0.706 0.487-0.993s0.412-0.568 0.637-0.843c0.275-0.3 0.55-0.537 0.824-0.712s0.612-0.312 1.012-0.412c0.275-0.125 0.649-0.256 1.124-0.393s1.087-0.219 1.836-0.244c0.849 0 1.611-0.019 2.286-0.056s2.073-0.056 4.197-0.056zM16 0.019c-2.148 0-3.566 0-4.253 0s-1.455 0.025-2.304 0.075c-0.849 0.025-1.586 0.1-2.211 0.225s-1.187 0.287-1.686 0.487c-0.525 0.25-1.030 0.506-1.518 0.768s-0.943 0.618-1.368 1.068c-0.45 0.45-0.812 0.912-1.087 1.386s-0.525 0.974-0.749 1.499c-0.175 0.475-0.331 1.037-0.468 1.686s-0.231 1.386-0.281 2.211c-0.025 0.849-0.044 1.617-0.056 2.304s-0.019 2.105-0.019 4.253c0 2.173 0.006 3.603 0.019 4.29s0.031 1.443 0.056 2.267c0.050 0.849 0.137 1.586 0.262 2.211s0.287 1.199 0.487 1.724c0.225 0.525 0.475 1.012 0.749 1.461s0.637 0.924 1.087 1.424c0.425 0.424 0.868 0.787 1.33 1.086s0.98 0.55 1.555 0.75c0.475 0.15 1.030 0.294 1.667 0.431s1.38 0.231 2.229 0.281c0.849 0.025 1.617 0.044 2.304 0.056s2.105 0.019 4.253 0.019c2.148 0 3.566-0.006 4.253-0.019s1.455-0.031 2.304-0.056c0.849-0.050 1.586-0.131 2.211-0.244s1.187-0.269 1.686-0.468c0.525-0.25 1.018-0.512 1.48-0.787s0.931-0.625 1.405-1.049c0.45-0.45 0.818-0.906 1.105-1.368s0.531-0.968 0.731-1.518c0.175-0.475 0.331-1.037 0.468-1.686s0.231-1.399 0.281-2.248c0.025-0.824 0.044-1.58 0.056-2.267s0.019-2.117 0.019-4.29c0-2.148-0.006-3.566-0.019-4.253s-0.031-1.455-0.056-2.304c-0.050-0.824-0.137-1.549-0.262-2.173s-0.287-1.199-0.487-1.724c-0.225-0.525-0.475-1.018-0.75-1.48s-0.637-0.931-1.086-1.405c-0.425-0.475-0.881-0.837-1.368-1.087s-0.993-0.5-1.518-0.749c-0.475-0.15-1.030-0.3-1.667-0.45s-1.38-0.237-2.23-0.262c-0.849-0.050-1.617-0.075-2.304-0.075s-2.105 0-4.253 0zM16 7.85c-1.149 0-2.217 0.212-3.204 0.637s-1.849 1.005-2.585 1.742c-0.737 0.737-1.318 1.605-1.742 2.604s-0.637 2.048-0.637 3.148c0 1.124 0.212 2.18 0.637 3.166s1.005 1.855 1.742 2.604c0.737 0.749 1.599 1.336 2.585 1.761s2.055 0.637 3.204 0.637c1.149 0 2.217-0.212 3.204-0.637s1.849-1.005 2.585-1.742c0.737-0.737 1.318-1.599 1.742-2.585s0.637-2.055 0.637-3.204c0-1.124-0.212-2.186-0.637-3.185s-1.005-1.861-1.742-2.585c-0.737-0.724-1.599-1.299-2.585-1.724s-2.055-0.637-3.204-0.637zM16 21.34c-1.474 0-2.735-0.518-3.785-1.555s-1.574-2.304-1.574-3.803c0-1.474 0.525-2.735 1.574-3.785s2.311-1.574 3.785-1.574c1.474 0 2.735 0.525 3.785 1.574s1.574 2.311 1.574 3.785c0 1.499-0.525 2.767-1.574 3.803s-2.311 1.555-3.785 1.555zM26.454 7.438c0 0.525-0.187 0.974-0.562 1.349s-0.824 0.562-1.349 0.562c-0.525 0-0.974-0.187-1.349-0.562s-0.562-0.824-0.562-1.349c0-0.525 0.187-0.974 0.562-1.349s0.824-0.562 1.349-0.562c0.525 0 0.974 0.187 1.349 0.562s0.562 0.824 0.562 1.349z"></path>
        </symbol>
        <symbol id="icon-caret" viewBox="0 0 32 32">
            <path d="M2.788 7.035h26.424c0.467 0.002 0.924 0.143 1.311 0.404s0.689 0.632 0.866 1.064c0.177 0.433 0.222 0.908 0.129 1.366s-0.32 0.878-0.652 1.207l-13.189 13.189c-0.22 0.222-0.481 0.397-0.769 0.517s-0.597 0.182-0.909 0.182c-0.312 0-0.621-0.062-0.909-0.182s-0.549-0.296-0.769-0.517l-13.189-13.189c-0.332-0.329-0.559-0.749-0.652-1.207s-0.048-0.934 0.129-1.366c0.177-0.433 0.479-0.803 0.866-1.064s0.844-0.402 1.311-0.404z"></path>
        </symbol>
        <symbol id="icon-right-round" viewBox="0 0 32 32">
            <path fill="#c5f600" style="fill: var(--color1, #c5f600)" d="M16 32c8.837 0 16-7.163 16-16s-7.163-16-16-16c-8.837 0-16 7.163-16 16s7.163 16 16 16z"></path>
            <path fill="none" stroke="#fff" style="stroke: var(--color2, #fff)" stroke-linejoin="round" stroke-linecap="round" stroke-miterlimit="4" stroke-width="2.2222" d="M8 15.999h16M24 15.999l-6-5.333M24 15.999l-6 5.333"></path>
        </symbol>
        <symbol id="icon-case-arrow" viewBox="0 0 28 28">
            <path fill="#c5f600" style="fill: var(--color1, #c5f600)" d="M14 28c7.732 0 14-6.268 14-14s-6.268-14-14-14c-7.732 0-14 6.268-14 14s6.268 14 14 14z"></path>
            <path fill="none" stroke="#fff" stroke-width="1.9444" stroke-miterlimit="4" stroke-linecap="round" stroke-linejoin="round" style="stroke: var(--color2, #fff)" d="M7 14h14M21 14l-5.25-4.667M21 14l-5.25 4.667"></path>
        </symbol>
    </defs>
</svg>